<svg width="601" height="609" viewBox="0 0 601 609" fill="none" xmlns="http://www.w3.org/2000/svg">
<path d="M84.5154 350.722H254.886V523.36C254.9 535.974 259.852 548.067 268.654 556.986C277.456 565.905 289.39 570.923 301.839 570.938H516.484C528.932 570.923 540.867 565.905 549.669 556.986C558.471 548.067 563.423 535.974 563.437 523.36V305.857C563.423 293.243 558.471 281.15 549.669 272.23C540.867 263.311 528.932 258.294 516.484 258.279H346.114V85.6409C346.099 73.0269 341.148 60.9338 332.346 52.0144C323.543 43.095 311.609 38.0775 299.161 38.0627H84.5154C72.0672 38.0775 60.133 43.095 51.3307 52.0144C42.5285 60.9338 37.5769 73.0269 37.5623 85.6409V303.143C37.5769 315.757 42.5285 327.851 51.3307 336.77C60.133 345.689 72.0672 350.707 84.5154 350.722ZM346.114 303.143V277.31H516.484C523.953 277.318 531.114 280.329 536.396 285.68C541.677 291.032 544.648 298.288 544.656 305.857V523.36C544.648 530.928 541.677 538.184 536.396 543.536C531.114 548.888 523.953 551.898 516.484 551.906H301.839C294.37 551.898 287.209 548.888 281.927 543.536C276.646 538.184 273.675 530.928 273.667 523.36V350.722H299.161C311.609 350.707 323.543 345.689 332.346 336.77C341.148 327.851 346.099 315.757 346.114 303.143ZM56.3436 85.6409C56.3517 78.0723 59.3224 70.8161 64.6039 65.4643C69.8854 60.1125 77.0463 57.1022 84.5154 57.094H299.161C306.63 57.1022 313.791 60.1125 319.072 65.4643C324.354 70.8161 327.325 78.0723 327.333 85.6409V303.143C327.325 310.712 324.354 317.968 319.072 323.32C313.791 328.672 306.63 331.682 299.161 331.69H84.5154C77.0463 331.682 69.8854 328.672 64.6039 323.32C59.3224 317.968 56.3517 310.712 56.3436 303.143V85.6409ZM119.758 164.005H139.896C147.665 187.559 160.584 209.029 177.689 226.815C162.722 238.658 145.594 247.387 127.287 252.499C124.885 253.163 122.841 254.766 121.604 256.957C120.368 259.147 120.04 261.745 120.693 264.18C125.686 285.368 182.708 248.172 191.839 239.999C209.389 254.351 229.685 264.86 251.447 270.861C252.64 271.202 253.889 271.299 255.12 271.148C256.351 270.997 257.54 270.601 258.619 269.982C259.698 269.363 260.646 268.533 261.407 267.541C262.168 266.549 262.727 265.414 263.053 264.201C263.379 262.989 263.464 261.723 263.305 260.477C263.145 259.231 262.743 258.029 262.123 256.941C261.503 255.853 260.676 254.9 259.69 254.138C258.705 253.376 257.58 252.818 256.38 252.499C238.077 247.386 220.952 238.657 205.989 226.814C223.095 209.031 236.012 187.56 243.775 164.005H263.919C266.385 163.968 268.738 162.949 270.469 161.169C272.2 159.388 273.171 156.989 273.171 154.489C273.171 151.99 272.2 149.591 270.469 147.81C268.737 146.03 266.384 145.011 263.918 144.974H201.229V127.104C201.229 124.581 200.239 122.16 198.478 120.376C196.717 118.591 194.329 117.589 191.838 117.589C189.348 117.589 186.959 118.591 185.198 120.376C183.437 122.16 182.448 124.581 182.448 127.104V144.974H119.758C117.299 145.023 114.957 146.047 113.235 147.826C111.513 149.605 110.549 151.998 110.549 154.49C110.549 156.982 111.514 159.375 113.236 161.154C114.958 162.933 117.3 163.957 119.758 164.005ZM223.79 164.005C216.606 182.769 205.727 199.853 191.815 214.218C177.851 199.903 166.975 182.804 159.875 164.005H223.79ZM357.339 485.835L374.96 446.556H443.362L460.984 485.836C462.045 488.084 463.935 489.821 466.246 490.673C468.558 491.525 471.107 491.424 473.345 490.391C475.584 489.359 477.334 487.478 478.219 485.153C479.104 482.828 479.053 480.243 478.077 477.955L458.067 433.348L417.708 343.38C416.962 341.718 415.759 340.308 414.244 339.319C412.728 338.331 410.964 337.805 409.161 337.805C407.359 337.805 405.595 338.331 404.079 339.319C402.563 340.308 401.361 341.718 400.614 343.38L340.245 477.956C339.27 480.244 339.22 482.828 340.105 485.153C340.99 487.478 342.74 489.358 344.979 490.39C347.217 491.422 349.766 491.523 352.077 490.671C354.388 489.819 356.277 488.083 357.339 485.835ZM409.161 370.32L434.825 427.525H383.498L409.161 370.32ZM165.005 390.141V413.252C165.013 420.82 167.984 428.076 173.266 433.428C178.547 438.78 185.708 441.79 193.177 441.798H215.984C218.475 441.798 220.863 442.801 222.624 444.585C224.385 446.37 225.375 448.79 225.375 451.314C225.375 453.838 224.385 456.258 222.624 458.043C220.863 459.827 218.475 460.83 215.984 460.83H193.177C180.729 460.815 168.795 455.797 159.992 446.878C151.19 437.959 146.239 425.865 146.224 413.252V390.141C146.224 387.617 147.213 385.197 148.974 383.412C150.735 381.628 153.124 380.625 155.615 380.625C158.105 380.625 160.494 381.628 162.255 383.412C164.016 385.197 165.005 387.617 165.005 390.141ZM435.994 218.86V195.749C435.986 188.18 433.016 180.924 427.734 175.572C422.453 170.221 415.292 167.21 407.823 167.202H385.015C382.525 167.202 380.136 166.199 378.375 164.415C376.614 162.63 375.625 160.21 375.625 157.686C375.625 155.163 376.614 152.742 378.375 150.958C380.136 149.173 382.525 148.171 385.015 148.171H407.823C420.271 148.186 432.205 153.203 441.007 162.122C449.809 171.042 454.761 183.135 454.776 195.749V218.86C454.776 221.383 453.786 223.804 452.025 225.588C450.264 227.373 447.876 228.375 445.385 228.375C442.894 228.375 440.506 227.373 438.745 225.588C436.984 223.804 435.994 221.383 435.994 218.86Z" fill="url(#paint0_linear_37_3045)"/>
<defs>
<linearGradient id="paint0_linear_37_3045" x1="37.5623" y1="304.5" x2="563.437" y2="304.5" gradientUnits="userSpaceOnUse">
<stop stop-color="#7F00FF"/>
<stop offset="1" stop-color="#E100FF"/>
</linearGradient>
</defs>
</svg>
